<svg width="120" height="110" xmlns="http://www.w3.org/2000/svg" preserveAspectRatio="xMidYMid meet" version="1.0">

 <g>
  <title>Layer 1</title>
  <g stroke="null" id="svg_4">
   <path stroke="null" id="svg_2" d="m56.07307,1.21998c-13.20262,1.52286 -24.15914,11.71619 -26.89828,25.02894c-0.68478,3.46328 -0.63,9.65297 0.13696,12.91975c1.5887,6.65637 4.46479,11.76532 9.12131,16.16196c14.73653,13.97592 38.1835,10.24246 48.04438,-7.66342c2.68435,-4.88789 3.78,-9.21084 3.80739,-15.0321c0,-4.69139 -0.43826,-7.36868 -1.91739,-11.27407c-4.05392,-10.88108 -13.5587,-18.49538 -24.95349,-20.0428c-2.93087,-0.393 -4.43739,-0.41756 -7.34087,-0.09825z"/>
   <path stroke="null" id="svg_3" d="m23.12131,74.68568c-20.37914,9.8249 -20.43393,9.87403 -22.0774,12.94431l-0.84913,1.62111l-0.08217,6.60725c-0.08217,5.64932 -0.02739,6.73006 0.35609,7.58974c0.71217,1.62111 1.94478,2.77553 3.75261,3.58609l1.67087,0.76143l53.60481,0l53.60481,0l1.67087,-0.76143c0.98609,-0.41756 2.02696,-1.12986 2.52,-1.6948c1.5887,-1.79304 1.69826,-2.45623 1.5887,-9.6284l-0.08217,-6.45987l-0.84913,-1.59655c-0.90391,-1.71936 -2.46522,-3.3159 -4.13609,-4.24927c-0.57522,-0.31931 -9.01174,-4.42121 -18.76305,-9.1126l-17.69479,-8.5231l-2.43783,1.08074c-4.95783,2.23517 -9.66914,3.21766 -15.42131,3.21766c-5.75218,0 -10.46348,-0.98249 -15.39392,-3.19309c-1.31478,-0.58949 -2.43783,-1.08074 -2.46522,-1.08074c-0.05478,0 -8.38174,4.00365 -18.51653,8.89154z"/>
  </g>
 </g>
</svg>